<?xml version="1.0" encoding="UTF-8"?>
<svg id="Layer_2" data-name="Layer 2" xmlns="http://www.w3.org/2000/svg" viewBox="0 0 741.95 156.02">
  <defs>
    <style>
      .cls-1 {
        fill: #a9d1ff;
      }

      .cls-2 {
        fill: #f2f2f2;
      }
    </style>
  </defs>
  <g id="Layer_1-2" data-name="Layer 1">
    <g>
      <path class="cls-2" d="m110.55,118.44h-27.5l-7.97-24.92h-39.84l-7.89,24.92H0L40.78,6.41h29.92l39.84,112.03Zm-41.25-44.3l-12.03-37.66c-.89-2.81-1.51-6.17-1.88-10.08h-.62c-.26,3.28-.91,6.54-1.95,9.77l-12.19,37.97h28.67Z"/>
      <path class="cls-2" d="m200.39,118.44h-24.69v-11.02h-.31c-5.62,8.65-13.88,12.97-24.77,12.97-10,0-18.05-3.53-24.14-10.59-6.09-7.06-9.14-16.91-9.14-29.57s3.36-23.83,10.08-31.8,15.52-11.95,26.41-11.95c10.31,0,17.5,3.7,21.56,11.09h.31V0h24.69v118.44Zm-24.22-38.91v-6.02c0-5.21-1.51-9.53-4.53-12.97-3.02-3.44-6.95-5.16-11.8-5.16-5.47,0-9.74,2.15-12.81,6.45-3.07,4.3-4.61,10.2-4.61,17.7,0,7.03,1.48,12.45,4.45,16.25,2.97,3.8,7.08,5.7,12.34,5.7s9.07-2,12.23-6.02c3.15-4.01,4.73-9.32,4.73-15.94Z"/>
      <path class="cls-2" d="m348.2,118.44h-24.61v-45.62c0-11.61-4.27-17.42-12.81-17.42-4.06,0-7.37,1.75-9.92,5.23-2.55,3.49-3.83,7.84-3.83,13.05v44.77h-24.69v-46.09c0-11.3-4.19-16.95-12.58-16.95-4.22,0-7.59,1.67-10.12,5-2.53,3.33-3.79,7.87-3.79,13.59v44.45h-24.69V38.44h24.69v12.5h.31c2.55-4.27,6.13-7.75,10.74-10.43,4.61-2.68,9.65-4.02,15.12-4.02,11.3,0,19.04,4.97,23.2,14.92,6.09-9.95,15.05-14.92,26.88-14.92,17.4,0,26.09,10.73,26.09,32.19v49.77Z"/>
      <path class="cls-2" d="m380.23,25.78c-4.17,0-7.58-1.24-10.23-3.71-2.66-2.47-3.98-5.51-3.98-9.1s1.33-6.72,3.98-9.06,6.07-3.52,10.23-3.52,7.64,1.17,10.27,3.52c2.63,2.34,3.95,5.37,3.95,9.06s-1.32,6.82-3.95,9.22c-2.63,2.4-6.05,3.59-10.27,3.59Zm12.19,92.66h-24.69V38.44h24.69v80Z"/>
      <path class="cls-2" d="m490.47,118.44h-24.61v-44.45c0-12.39-4.43-18.59-13.28-18.59-4.27,0-7.79,1.64-10.55,4.92-2.76,3.28-4.14,7.45-4.14,12.5v45.62h-24.69V38.44h24.69v12.66h.31c5.88-9.74,14.45-14.61,25.7-14.61,17.71,0,26.56,10.99,26.56,32.97v48.98Z"/>
      <path class="cls-1" d="m507.27,114.14v-25c4.53,3.8,9.45,6.65,14.77,8.55,5.31,1.9,10.68,2.85,16.09,2.85,3.18,0,5.95-.29,8.32-.86,2.37-.57,4.35-1.37,5.94-2.38,1.59-1.02,2.77-2.21,3.55-3.59.78-1.38,1.17-2.88,1.17-4.49,0-2.19-.62-4.14-1.88-5.86s-2.96-3.31-5.12-4.77c-2.16-1.46-4.73-2.86-7.7-4.22-2.97-1.35-6.17-2.73-9.61-4.14-8.75-3.64-15.27-8.1-19.57-13.36-4.3-5.26-6.45-11.61-6.45-19.06,0-5.83,1.17-10.85,3.52-15.04,2.34-4.19,5.53-7.64,9.57-10.35,4.04-2.71,8.71-4.7,14.02-5.98,5.31-1.28,10.94-1.91,16.88-1.91s11,.35,15.51,1.05c4.5.7,8.66,1.79,12.46,3.24v23.36c-1.88-1.3-3.92-2.45-6.13-3.44-2.21-.99-4.49-1.81-6.84-2.46-2.34-.65-4.68-1.13-6.99-1.45-2.32-.31-4.52-.47-6.6-.47-2.87,0-5.47.27-7.81.82s-4.32,1.32-5.94,2.3c-1.62.99-2.87,2.18-3.75,3.55-.89,1.38-1.33,2.93-1.33,4.65,0,1.88.49,3.55,1.48,5.04.99,1.48,2.39,2.89,4.22,4.22,1.82,1.33,4.04,2.63,6.64,3.91,2.6,1.28,5.55,2.59,8.83,3.95,4.48,1.88,8.5,3.87,12.07,5.98,3.57,2.11,6.63,4.49,9.18,7.15,2.55,2.66,4.5,5.69,5.86,9.1,1.35,3.41,2.03,7.38,2.03,11.91,0,6.25-1.19,11.5-3.55,15.74-2.37,4.25-5.59,7.68-9.65,10.31-4.06,2.63-8.79,4.52-14.18,5.66s-11.08,1.72-17.07,1.72-11.99-.52-17.54-1.56-10.35-2.6-14.41-4.69Z"/>
      <path class="cls-1" d="m675.86,38.44l-32.5,86.41c-7.81,20.78-19.58,31.17-35.31,31.17-5.99,0-10.91-.68-14.77-2.03v-19.69c3.28,1.93,6.85,2.89,10.7,2.89,6.35,0,10.78-3,13.28-8.98l4.22-9.92-32.5-79.84h27.34l14.92,48.67c.94,3.02,1.67,6.59,2.19,10.7h.31c.47-3.02,1.33-6.54,2.58-10.55l15.08-48.83h24.45Z"/>
      <path class="cls-1" d="m680.55,116.33v-20c4.06,2.45,8.11,4.27,12.15,5.47,4.04,1.2,7.85,1.8,11.45,1.8,4.38,0,7.82-.6,10.35-1.8,2.53-1.2,3.79-3.02,3.79-5.47,0-1.56-.57-2.86-1.72-3.91-1.15-1.04-2.62-1.95-4.41-2.73s-3.76-1.48-5.9-2.11c-2.14-.62-4.19-1.33-6.17-2.11-3.18-1.2-5.98-2.49-8.4-3.87-2.42-1.38-4.45-2.98-6.09-4.8-1.64-1.82-2.89-3.93-3.75-6.33-.86-2.39-1.29-5.23-1.29-8.52,0-4.48.98-8.33,2.93-11.56,1.95-3.23,4.56-5.87,7.81-7.93,3.25-2.06,6.98-3.57,11.17-4.53,4.19-.96,8.55-1.45,13.09-1.45,3.54,0,7.13.27,10.78.82,3.64.55,7.24,1.34,10.78,2.38v19.06c-3.12-1.82-6.47-3.19-10.04-4.1-3.57-.91-7.07-1.37-10.51-1.37-1.62,0-3.14.14-4.57.43-1.43.29-2.7.7-3.79,1.25s-1.95,1.25-2.58,2.11-.94,1.84-.94,2.93c0,1.46.47,2.71,1.41,3.75.94,1.04,2.16,1.94,3.67,2.7,1.51.76,3.19,1.43,5.04,2.03,1.85.6,3.68,1.21,5.51,1.84,3.28,1.15,6.25,2.4,8.91,3.75,2.66,1.36,4.93,2.94,6.84,4.77,1.9,1.82,3.36,3.96,4.38,6.41,1.02,2.45,1.52,5.37,1.52,8.75,0,4.74-1.03,8.79-3.09,12.15-2.06,3.36-4.79,6.09-8.2,8.2-3.41,2.11-7.34,3.65-11.8,4.61s-9.08,1.45-13.87,1.45c-8.8,0-16.95-1.36-24.45-4.06Z"/>
    </g>
  </g>
</svg>